<svg version="1.1" xmlns="http://www.w3.org/2000/svg" xmlns:xlink="http://www.w3.org/1999/xlink" x="0px" y="0px"
	 viewBox="0 0 736 1024" style="enable-background:new 0 0 736 1024;" xml:space="preserve">
<style type="text/css">
	.st0{fill:#C7B299;}
	.st1{fill:#754C24;}
	.st2{fill:#A67C52;}
	.st3{fill:none;}
	.st4{fill:#8C6239;}
	.st5{fill:#603813;}
	.st6{fill:#4D4D4D;}
	.st7{fill:#1A1A1A;}
	.st8{fill:#333333;}
	.st9{opacity:0.54;fill:#F2F2F2;}
	.st10{fill:#FBB03B;}
	.st11{fill:#F7931E;}
	.st12{fill:#ED1C24;}
	.st13{fill:#C1272D;}
	.st14{fill:#F2F2F2;}
	.st15{fill:#42210B;}
	.st16{fill:#009245;}
	.st17{fill:#FFEDDF;}
</style>
<g id="bg">
	<rect x="-2" y="1" class="st0" width="736" height="1024"/>
</g>
<g id="fire">
	<g id="logs">
		<g>
			<path class="st1" d="M374.7,817.5L374.7,817.5L374.7,817.5c-0.7,0.5-1.3,1.1-1.9,1.7L265.2,915l37.6,48.2l108.2-96.3
				c6.4-5,9.8-13.8,8.2-24c-2.4-16-16.2-29.3-30.7-29.7C383.1,813,378.4,814.6,374.7,817.5z"/>
			
				<ellipse transform="matrix(0.8381 -0.5455 0.5455 0.8381 -465.9857 307.1852)" class="st2" cx="284.5" cy="938.6" rx="24.8" ry="30.6"/>
			<g>
				<path class="st3" d="M303.9,945.9"/>
				<path class="st3" d="M303.9,938.8"/>
				<path class="st4" d="M264.8,930.7c0.2-1.7,0.6-3.4,1.3-5.1c0.7-1.6,1.7-3.1,2.9-4.5c1.2-1.3,2.7-2.4,4.2-3.2
					c1.6-0.8,3.3-1.3,5.1-1.6c3.6-0.5,7.2,0.3,10.4,1.7c3.2,1.5,6,3.8,8.2,6.4c-2.5-2.4-5.4-4.4-8.5-5.7c-1.6-0.6-3.2-1.1-4.9-1.4
					c-0.4-0.1-0.8-0.1-1.3-0.2c-0.4,0-0.8-0.1-1.3-0.1l-1.3,0c-0.2,0-0.4,0-0.6,0.1l-0.6,0.1c-3.3,0.4-6.5,1.9-8.9,4.3
					c-1.2,1.2-2.2,2.6-3,4.1C265.8,927.3,265.2,929,264.8,930.7z"/>
				<path class="st4" d="M303.9,945.9c-0.2,1.7-0.6,3.4-1.3,5c-0.7,1.6-1.6,3.1-2.7,4.4c-1.2,1.3-2.6,2.4-4.1,3.2
					c-1.5,0.8-3.2,1.4-5,1.7l-1.3,0.1c-0.1,0-0.2,0-0.3,0l-0.3,0l-0.7,0c-0.2,0-0.4,0-0.7,0l-0.7,0c-0.4,0-0.9-0.1-1.3-0.1
					c-0.4-0.1-0.9-0.1-1.3-0.2l-0.6-0.2l-0.3-0.1l-0.3-0.1c-0.4-0.1-0.8-0.2-1.2-0.4c-0.2-0.1-0.4-0.1-0.6-0.2l-0.6-0.2
					c-0.4-0.2-0.8-0.4-1.2-0.5c-0.4-0.2-0.8-0.4-1.1-0.6c-0.7-0.4-1.5-0.9-2.2-1.4c-1.4-1-2.6-2.2-3.8-3.5c1.3,1.1,2.6,2.2,4,3.1
					c1.4,0.9,2.9,1.7,4.5,2.2c1.6,0.6,3.2,1,4.8,1.2c0.4,0,0.8,0.1,1.2,0.1l0.6,0c0.2,0,0.4,0,0.6,0l0.6,0l0.3,0c0.1,0,0.2,0,0.3,0
					l1.2-0.1c3.3-0.5,6.3-2.1,8.6-4.5c1.2-1.2,2.1-2.6,2.9-4.1C302.9,949.1,303.5,947.5,303.9,945.9z"/>
				<path class="st4" d="M288.1,955c-2,0.3-4.1,0.1-6.1-0.5c-0.2-0.1-0.5-0.1-0.7-0.2l-0.7-0.3c-0.5-0.2-0.9-0.4-1.4-0.7
					c-0.9-0.5-1.8-1.1-2.6-1.7c-0.2-0.2-0.4-0.3-0.6-0.5l-0.6-0.5c-0.2-0.2-0.4-0.4-0.6-0.5c-0.2-0.2-0.4-0.4-0.5-0.6
					c-0.3-0.4-0.7-0.8-1-1.2c-0.3-0.4-0.6-0.8-0.9-1.3c-1.1-1.7-2-3.6-2.4-5.6c0.9,1.8,1.9,3.6,3.1,5.1l0.9,1.2
					c0.3,0.4,0.7,0.7,1,1.1c0.4,0.3,0.7,0.7,1.1,1l0.6,0.5c0.2,0.2,0.4,0.3,0.6,0.5c0.8,0.6,1.6,1.2,2.4,1.7
					c0.4,0.2,0.8,0.5,1.3,0.7l0.7,0.3c0.2,0.1,0.5,0.2,0.7,0.3C284.1,954.5,286.1,954.9,288.1,955z"/>
				<path class="st3" d="M288.1,955"/>
				<path class="st3" d="M296.2,951.3"/>
				<path class="st4" d="M297.8,932.8c0.9,1.4,1.6,2.9,2,4.5c0.4,1.6,0.6,3.3,0.5,5c-0.1,1.7-0.5,3.4-1.1,4.9
					c-0.3,0.8-0.7,1.5-1.2,2.2c-0.5,0.7-1.1,1.3-1.7,1.8c0.5-0.7,0.9-1.4,1.3-2.1l0.3-0.5l0.2-0.6c0.1-0.2,0.1-0.4,0.2-0.6
					c0.1-0.2,0.1-0.4,0.2-0.6c0.5-1.5,0.8-3.1,0.9-4.7c0.1-1.6,0-3.2-0.3-4.8C298.7,936,298.3,934.4,297.8,932.8z"/>
				<path class="st3" d="M295.1,935.3"/>
				<path class="st4" d="M281.5,925.4c0.2-0.1,0.4-0.1,0.6-0.1c0.2,0,0.4-0.1,0.6-0.1c0.2,0,0.4,0,0.6,0c0.2,0,0.4,0,0.6,0
					c0.8,0,1.6,0.2,2.3,0.5c0.8,0.3,1.5,0.6,2.1,1.1c0.6,0.5,1.2,1,1.7,1.6c-0.7-0.3-1.4-0.6-2.1-0.9c-0.7-0.3-1.4-0.6-2.1-0.8
					c-0.7-0.2-1.4-0.5-2.1-0.6c-0.4-0.1-0.7-0.2-1.1-0.3C282.3,925.6,281.9,925.5,281.5,925.4z"/>
				<path class="st4" d="M272.6,934.7c-0.1-0.8-0.1-1.7,0.1-2.5c0.2-0.8,0.5-1.6,0.9-2.4c0.4-0.7,1-1.4,1.6-2c0.6-0.6,1.4-1,2.2-1.2
					c-0.6,0.6-1.1,1.2-1.6,1.8c-0.5,0.6-0.9,1.2-1.3,1.9c-0.4,0.7-0.7,1.4-1,2.1C273.1,933.2,272.9,933.9,272.6,934.7z"/>
				<path class="st3" d="M285.1,951"/>
				<path class="st4" d="M295.1,935.3c0.9,1.7,1.4,3.6,1.4,5.6c0.1,2-0.4,4-1.4,5.7c-0.5,0.9-1.1,1.7-1.8,2.3
					c-0.2,0.2-0.4,0.3-0.6,0.5c-0.2,0.1-0.4,0.3-0.6,0.4c-0.4,0.3-0.9,0.5-1.3,0.7c-0.9,0.4-1.9,0.6-2.9,0.7c-0.2,0-0.5,0-0.7,0
					l-0.4,0l-0.4,0c-0.5,0-1-0.2-1.4-0.2l0.7,0c0.2,0,0.5,0,0.7,0l0.4,0l0.3,0c0.2,0,0.5-0.1,0.7-0.1c0.2,0,0.5-0.1,0.7-0.2
					c0.2-0.1,0.4-0.1,0.7-0.2c0.4-0.1,0.9-0.3,1.3-0.5c0.8-0.4,1.6-1,2.2-1.6c0.3-0.3,0.6-0.7,0.9-1c0.3-0.4,0.5-0.7,0.7-1.1
					c0.5-0.8,0.8-1.6,1-2.5c0.3-0.9,0.4-1.8,0.4-2.7C295.9,939,295.6,937.2,295.1,935.3z"/>
				<path class="st4" d="M282,946c-2.9-1.3-5.2-4.2-5.9-7.4c-0.4-1.6-0.3-3.4,0.2-5l0.2-0.6c0.1-0.2,0.2-0.4,0.3-0.6
					c0.1-0.2,0.2-0.4,0.3-0.5l0.2-0.3l0.2-0.2c0.3-0.3,0.6-0.6,0.9-0.9l0.5-0.4c0.2-0.1,0.4-0.2,0.6-0.3c0.8-0.4,1.6-0.6,2.5-0.7
					c0.2,0,0.4,0,0.6,0c0.1,0,0.2,0,0.3,0l0.3,0c0.2,0,0.4,0,0.6,0.1l0.6,0.1c0.2,0,0.4,0.1,0.6,0.2c0.2,0.1,0.4,0.1,0.6,0.2
					l0.6,0.2l0.6,0.3c0.2,0.1,0.4,0.2,0.5,0.3c0.2,0.1,0.4,0.2,0.5,0.4c0.3,0.3,0.7,0.5,1,0.8c1.2,1.1,2.1,2.5,2.8,4
					c0.3,0.8,0.5,1.6,0.6,2.4c0.1,0.8,0.1,1.6,0,2.4c0-0.4,0-0.8-0.1-1.2c0-0.4-0.1-0.8-0.2-1.2c-0.2-0.8-0.5-1.5-0.8-2.2
					c-0.7-1.4-1.7-2.7-2.8-3.7c-1.2-1-2.6-1.7-4-2.1c-0.7-0.2-1.5-0.2-2.2-0.1c-0.7,0.1-1.5,0.3-2.1,0.6c-0.2,0.1-0.3,0.2-0.5,0.3
					l-0.4,0.3c-0.3,0.2-0.6,0.5-0.8,0.8c-0.5,0.6-0.9,1.2-1.1,1.9c0,0.1-0.1,0.2-0.1,0.3l-0.1,0.3l-0.1,0.3c0,0.1,0,0.2-0.1,0.3
					c0,0.2-0.1,0.4-0.1,0.6l-0.1,0.6c0,0.8,0,1.5,0.1,2.3c0.3,1.5,0.9,3,1.7,4.3C279.5,944,280.7,945.2,282,946z"/>
			</g>
			<g>
				<path class="st5" d="M319.3,939.2c6.8-6.4,13.7-12.7,20.6-19c3.4-3.1,6.9-6.3,10.4-9.4l10.4-9.3l10.5-9.3
					c3.5-3.1,7-6.2,10.5-9.2c7-6.1,14.1-12.3,21.2-18.3c-6.8,6.4-13.7,12.7-20.6,19c-3.4,3.2-6.9,6.3-10.4,9.4l-10.4,9.3l-10.5,9.3
					c-3.5,3.1-7,6.2-10.5,9.2C333.5,927,326.4,933.2,319.3,939.2z"/>
				<path class="st5" d="M354.1,891.2c4-3.9,8-7.7,12-11.4c2-1.9,4.1-3.7,6.1-5.6l6.2-5.5l6.2-5.5c2.1-1.8,4.2-3.6,6.3-5.4
					c4.2-3.6,8.4-7.2,12.7-10.7c-4,3.9-8,7.7-12,11.4c-2,1.9-4.1,3.7-6.1,5.6l-6.2,5.5l-6.2,5.5c-2.1,1.8-4.2,3.6-6.3,5.4
					C362.6,884.1,358.4,887.7,354.1,891.2z"/>
				<path class="st5" d="M309.3,912.6c4-3.9,8-7.7,12-11.4c2-1.9,4.1-3.7,6.1-5.6l6.2-5.5l6.2-5.5c2.1-1.8,4.2-3.6,6.3-5.4
					c4.2-3.6,8.4-7.2,12.7-10.7c-4,3.9-8,7.7-12,11.4c-2,1.9-4.1,3.7-6.1,5.6l-6.2,5.5l-6.2,5.5c-2.1,1.8-4.2,3.6-6.3,5.4
					C317.9,905.6,313.6,909.1,309.3,912.6z"/>
				<path class="st5" d="M283.8,902.5c1.4-1.6,2.9-3.2,4.5-4.7c1.5-1.5,3.1-3,4.7-4.4c1.6-1.4,3.2-2.8,4.9-4.2
					c1.7-1.4,3.4-2.7,5.1-3.9c-1.4,1.6-2.9,3.2-4.5,4.7c-1.5,1.5-3.1,3-4.7,4.4c-1.6,1.4-3.2,2.8-4.9,4.2
					C287.3,900,285.6,901.3,283.8,902.5z"/>
				<path class="st5" d="M324.5,878.5c4.3-4.2,8.7-8.3,13.1-12.3c2.2-2,4.4-4,6.6-6.1l6.7-6l6.7-6c2.3-2,4.5-4,6.8-5.9
					c4.5-3.9,9.1-7.8,13.7-11.6c-4.3,4.2-8.7,8.3-13.1,12.3c-2.2,2-4.4,4-6.6,6.1l-6.7,6l-6.7,6c-2.3,2-4.5,4-6.8,5.9
					C333.7,870.9,329.2,874.8,324.5,878.5z"/>
				<path class="st5" d="M338.9,853.2c2.3-2.4,4.7-4.7,7.2-7c1.2-1.2,2.5-2.3,3.7-3.4l3.7-3.4l3.8-3.3c1.3-1.1,2.5-2.2,3.8-3.3
					c2.6-2.2,5.1-4.3,7.8-6.3c-2.3,2.4-4.7,4.8-7.2,7c-1.2,1.2-2.5,2.3-3.7,3.4l-3.7,3.4l-3.8,3.3c-1.3,1.1-2.5,2.2-3.8,3.3
					C344.1,849,341.5,851.1,338.9,853.2z"/>
			</g>
		</g>
		<g>
			<path class="st1" d="M279.9,876.6L279.9,876.6L279.9,876.6c0.8-0.3,1.6-0.5,2.5-0.7l138.4-40l20.8,57.5l-139.1,40.2
				c-7.6,2.8-16.9,0.9-24.7-5.8c-12.3-10.6-16.2-29.3-8.8-41.8C271.6,881.3,275.5,878.2,279.9,876.6z"/>
			
				<ellipse transform="matrix(0.9083 -0.4184 0.4184 0.9083 -322.3557 259.4539)" class="st2" cx="430.5" cy="864.8" rx="24.8" ry="30.6"/>
			<g>
				<path class="st3" d="M426.3,885.1"/>
				<path class="st3" d="M420.3,881.3"/>
				<path class="st4" d="M434.2,843.9c-1.6-0.6-3.3-1-5.1-1.1c-1.7-0.2-3.4,0-5.1,0.3c-3.3,0.7-6.3,2.6-8.4,5.2l-0.4,0.5
					c-0.1,0.2-0.3,0.3-0.4,0.5l-0.7,1.1c-0.2,0.4-0.4,0.7-0.6,1.1c-0.2,0.4-0.4,0.8-0.5,1.2c-0.7,1.6-1.1,3.2-1.4,4.9
					c-0.6,3.4-0.4,6.9,0.3,10.3c-1.1-3.3-1.5-6.9-1.1-10.4c0.5-3.5,1.8-7,4.1-9.7c1.1-1.4,2.5-2.6,4-3.5c1.5-0.9,3.2-1.6,5-1.9
					c1.8-0.3,3.6-0.3,5.3,0C431,842.6,432.7,843.1,434.2,843.9z"/>
				<path class="st4" d="M426.3,885.1c1.6,0.5,3.3,0.9,4.9,1.1c1.7,0.2,3.3,0.1,5-0.3c3.2-0.7,6.2-2.4,8.4-4.9l0.8-1
					c0.1-0.1,0.1-0.2,0.2-0.2l0.2-0.3l0.3-0.5c0.1-0.2,0.2-0.3,0.3-0.5l0.3-0.5c0.2-0.4,0.4-0.7,0.6-1.1c0.7-1.5,1.2-3.1,1.6-4.7
					c0.3-1.6,0.5-3.3,0.5-5c0-1.7-0.2-3.4-0.4-5c0.5,1.6,0.8,3.3,0.9,5c0.1,0.9,0.1,1.7,0,2.6c0,0.4,0,0.9-0.1,1.3
					c-0.1,0.4-0.1,0.9-0.2,1.3l-0.1,0.6c0,0.2-0.1,0.4-0.1,0.6c-0.1,0.4-0.2,0.8-0.3,1.3l-0.1,0.3l-0.1,0.3l-0.2,0.6
					c-0.2,0.4-0.3,0.8-0.5,1.2c-0.2,0.4-0.4,0.8-0.6,1.2l-0.3,0.6c-0.1,0.2-0.2,0.4-0.4,0.6l-0.4,0.5l-0.2,0.3
					c-0.1,0.1-0.1,0.2-0.2,0.3l-0.8,1c-1.2,1.3-2.5,2.4-4.1,3.3c-1.5,0.9-3.2,1.5-4.9,1.7c-1.7,0.3-3.5,0.3-5.2,0
					C429.4,886.3,427.8,885.8,426.3,885.1z"/>
				<path class="st4" d="M442.4,876.6c1-1.8,1.7-3.7,2-5.6c0-0.2,0.1-0.5,0.1-0.7l0.1-0.7c0.1-0.5,0.1-1,0.1-1.5c0-1,0-2-0.1-2.9
					c0-0.2-0.1-0.5-0.1-0.7l-0.1-0.7c-0.1-0.5-0.2-1-0.3-1.4c-0.1-0.5-0.3-1-0.4-1.4l-0.5-1.4c-0.7-1.9-1.6-3.6-2.7-5.3
					c1.4,1.4,2.6,3.2,3.4,5c0.2,0.5,0.4,0.9,0.6,1.4c0.2,0.5,0.3,1,0.5,1.5c0.1,0.2,0.1,0.5,0.2,0.8c0.1,0.3,0.1,0.5,0.2,0.8
					l0.1,0.8c0,0.3,0.1,0.5,0.1,0.8c0.1,1,0.1,2.1,0.1,3.1c0,0.5-0.1,1-0.2,1.5l-0.1,0.8c0,0.3-0.1,0.5-0.2,0.8
					C444.7,873.2,443.7,875.1,442.4,876.6z"/>
				<path class="st3" d="M442.4,876.6"/>
				<path class="st3" d="M434.9,881.4"/>
				<path class="st4" d="M418.5,872.9c1,1.3,2.1,2.5,3.3,3.5c1.2,1.1,2.5,2,3.9,2.8c1.4,0.8,2.9,1.4,4.4,1.8
					c0.2,0.1,0.4,0.1,0.6,0.1c0.2,0,0.4,0.1,0.6,0.1l0.6,0.1l0.6,0.1c0.8,0.1,1.6,0.1,2.4,0c-0.8,0.3-1.6,0.4-2.4,0.5
					c-0.8,0.1-1.7,0-2.5-0.1c-1.7-0.2-3.3-0.8-4.7-1.7c-1.5-0.8-2.8-1.9-3.9-3.1C420.2,875.8,419.2,874.4,418.5,872.9z"/>
				<path class="st3" d="M422,872"/>
				<path class="st4" d="M420.9,855.2c-0.1,0.4-0.3,0.7-0.4,1.1c-0.1,0.4-0.3,0.7-0.4,1.1c-0.2,0.7-0.4,1.4-0.6,2.1
					c-0.2,0.7-0.3,1.4-0.4,2.2c-0.1,0.7-0.2,1.5-0.3,2.3c-0.3-0.7-0.4-1.5-0.5-2.3c0-0.8,0-1.6,0.2-2.4c0.2-0.8,0.5-1.5,0.8-2.2
					c0.1-0.2,0.2-0.3,0.3-0.5c0.1-0.2,0.2-0.3,0.3-0.5c0.1-0.2,0.3-0.3,0.4-0.4C420.6,855.5,420.8,855.3,420.9,855.2z"/>
				<path class="st4" d="M433.5,852.6c-0.8-0.2-1.6-0.4-2.4-0.5c-0.8-0.1-1.5-0.2-2.3-0.3c-0.8,0-1.5,0-2.3,0.1
					c-0.8,0.1-1.6,0.2-2.4,0.4c0.6-0.6,1.4-1,2.2-1.2c0.8-0.3,1.7-0.4,2.5-0.3c0.9,0,1.7,0.2,2.5,0.5
					C432.1,851.7,432.9,852.1,433.5,852.6z"/>
				<path class="st3" d="M440.6,871.9"/>
				<path class="st4" d="M422,872c1.3,1.4,2.8,2.6,4.4,3.5c0.8,0.4,1.6,0.8,2.5,1.1c0.9,0.3,1.8,0.4,2.7,0.5c0.5,0,0.9,0,1.4,0
					c0.4,0,0.9-0.1,1.3-0.2c0.9-0.2,1.7-0.6,2.5-1c0.4-0.2,0.8-0.5,1.1-0.8c0.2-0.1,0.4-0.3,0.5-0.4c0.2-0.2,0.3-0.3,0.5-0.5
					c0.2-0.2,0.3-0.3,0.5-0.5l0.2-0.3l0.2-0.3c0.2-0.2,0.3-0.4,0.4-0.6l0.4-0.6c-0.2,0.4-0.3,0.9-0.6,1.3l-0.2,0.3l-0.2,0.3
					c-0.1,0.2-0.3,0.4-0.4,0.6c-0.6,0.8-1.3,1.5-2.1,2.1c-0.4,0.3-0.8,0.5-1.3,0.7c-0.2,0.1-0.5,0.2-0.7,0.3
					c-0.2,0.1-0.5,0.2-0.7,0.2c-1,0.3-2,0.4-3,0.3c-2-0.1-3.9-0.8-5.6-1.9C424.3,875.1,423,873.7,422,872z"/>
				<path class="st4" d="M438,866.6c0-1.6-0.3-3.2-1-4.6c-0.6-1.4-1.6-2.7-2.7-3.8c-0.6-0.5-1.2-1-1.9-1.3l-0.5-0.3
					c-0.2-0.1-0.4-0.1-0.5-0.2c-0.1,0-0.2-0.1-0.3-0.1l-0.3-0.1l-0.3-0.1c-0.1,0-0.2,0-0.3-0.1c-0.7-0.2-1.5-0.2-2.2-0.1
					c-0.4,0-0.7,0.2-1.1,0.3l-0.5,0.2c-0.2,0.1-0.3,0.2-0.5,0.3c-0.6,0.4-1.2,0.9-1.7,1.4c-0.4,0.6-0.8,1.3-1.1,2
					c-0.5,1.4-0.6,3-0.4,4.5c0.2,1.5,0.8,3,1.6,4.3c0.4,0.7,0.9,1.3,1.4,1.9c0.3,0.3,0.6,0.6,0.9,0.8c0.3,0.3,0.6,0.5,1,0.7
					c-0.7-0.3-1.4-0.8-2-1.3c-0.6-0.5-1.2-1.1-1.7-1.8c-0.9-1.3-1.7-2.9-2-4.5c-0.1-0.4-0.1-0.8-0.2-1.2c0-0.2,0-0.4,0-0.6
					c0-0.2,0-0.4,0-0.6l0-0.6l0.1-0.6c0-0.2,0.1-0.4,0.1-0.6c0.1-0.2,0.1-0.4,0.2-0.6l0.2-0.6c0.1-0.2,0.2-0.4,0.3-0.6l0.1-0.3
					c0.1-0.1,0.1-0.2,0.2-0.3c0.1-0.2,0.2-0.4,0.4-0.5c0.5-0.7,1.2-1.3,1.9-1.7c0.2-0.1,0.4-0.2,0.6-0.3l0.6-0.2
					c0.4-0.1,0.8-0.2,1.3-0.3l0.3,0l0.3,0c0.2,0,0.4,0,0.6,0c0.2,0,0.4,0,0.6,0.1l0.6,0.1c1.7,0.4,3.2,1.3,4.3,2.5
					C437.2,860,438.5,863.4,438,866.6z"/>
			</g>
			<g>
				<path class="st5" d="M412.4,894.5c-8.9,2.8-17.8,5.5-26.8,8.2c-4.5,1.3-8.9,2.6-13.4,4l-13.4,3.9l-13.5,3.8
					c-4.5,1.3-9,2.5-13.5,3.8c-9,2.5-18,4.9-27,7.3c8.9-2.8,17.8-5.5,26.8-8.2c4.5-1.3,8.9-2.6,13.4-4l13.4-3.9l13.5-3.8
					c4.5-1.3,9-2.5,13.5-3.8C394.4,899.3,403.4,896.8,412.4,894.5z"/>
				<path class="st5" d="M353.2,898.4c-5.2,1.8-10.5,3.4-15.8,5.1c-2.6,0.8-5.3,1.6-7.9,2.4l-8,2.3l-8,2.3c-2.7,0.7-5.3,1.5-8,2.2
					c-5.3,1.4-10.7,2.8-16.1,4.1c5.2-1.8,10.5-3.4,15.8-5.1c2.6-0.8,5.3-1.6,7.9-2.4l8-2.3l8-2.3c2.7-0.7,5.3-1.5,8-2.2
					C342.5,901.1,347.8,899.7,353.2,898.4z"/>
				<path class="st5" d="M395.2,872c-5.2,1.8-10.5,3.4-15.8,5.1c-2.6,0.8-5.3,1.6-7.9,2.4l-8,2.3l-8,2.3c-2.7,0.7-5.3,1.5-8,2.2
					c-5.3,1.4-10.7,2.8-16.1,4.1c5.2-1.8,10.5-3.4,15.8-5.1c2.6-0.8,5.3-1.6,7.9-2.4l8-2.3l8-2.3c2.7-0.7,5.3-1.5,8-2.2
					C384.5,874.6,389.8,873.2,395.2,872z"/>
				<path class="st5" d="M400.3,845c-2,0.8-4,1.6-6.1,2.2c-2,0.7-4.1,1.3-6.2,1.9c-2.1,0.6-4.1,1.2-6.2,1.7c-2.1,0.5-4.2,1-6.3,1.3
					c2-0.8,4-1.6,6.1-2.3c2-0.7,4.1-1.3,6.2-1.9c2.1-0.6,4.1-1.2,6.2-1.6C396.1,845.8,398.2,845.3,400.3,845z"/>
				<path class="st5" d="M358.3,866.6c-5.7,1.9-11.4,3.7-17.1,5.4c-2.9,0.9-5.7,1.7-8.6,2.6l-8.6,2.5l-8.6,2.5
					c-2.9,0.8-5.8,1.6-8.7,2.4c-5.8,1.6-11.6,3.1-17.4,4.5c5.7-1.9,11.4-3.7,17.1-5.4c2.9-0.9,5.7-1.7,8.6-2.6l8.6-2.5l8.6-2.5
					c2.9-0.8,5.8-1.6,8.7-2.4C346.7,869.6,352.5,868.1,358.3,866.6z"/>
				<path class="st5" d="M329.2,865.3c-3.1,1.2-6.3,2.2-9.5,3.2c-1.6,0.5-3.2,1-4.8,1.5l-4.8,1.4l-4.8,1.4c-1.6,0.4-3.2,0.9-4.9,1.3
					c-3.2,0.8-6.5,1.6-9.8,2.3c3.1-1.2,6.3-2.2,9.5-3.2c1.6-0.5,3.2-1,4.8-1.5l4.8-1.4l4.8-1.4c1.6-0.4,3.2-0.9,4.9-1.3
					C322.7,866.7,325.9,865.9,329.2,865.3z"/>
			</g>
		</g>
		<g id="SMOKE1">
			<circle class="st6" cx="379" cy="913" r="15.3"/>
			<circle class="st6" cx="384" cy="913" r="15.3"/>
			<ellipse class="st7" cx="370.7" cy="913" rx="3.2" ry="3.4"/>
			<circle class="st7" cx="371.8" cy="913" r="9.6"/>
			<circle class="st8" cx="377.5" cy="913" r="9.6"/>
			<circle class="st6" cx="395.8" cy="913" r="15.3"/>
			<circle class="st6" cx="414.4" cy="913" r="14"/>
			<circle class="st7" cx="391" cy="913" r="9.6"/>
			<circle class="st8" cx="385.5" cy="913" r="9.6"/>
			<circle class="st8" cx="403.8" cy="913" r="14.6"/>
			<circle class="st8" cx="382.5" cy="913" r="9.6"/>
			<circle class="st8" cx="403.3" cy="913" r="12.9"/>
		</g>
		<g>
			<path class="st4" d="M421.7,901.5L421.7,901.5L421.7,901.5c-0.4-0.5-0.9-0.9-1.4-1.4l-75.7-75.8l-36.2,50.4l76.1,76.1
				c4,4.7,10.8,5.4,18.6,0.9c12.2-7.1,22.2-24.3,22.2-38.4C425.3,908.3,424,904.2,421.7,901.5z"/>
			<ellipse transform="matrix(0.5 -0.866 0.866 0.5 -572.6718 708.1096)" class="st2" cx="326.9" cy="850" rx="31.4" ry="18.1"/>
			<g>
				<path class="st3" d="M321.8,870.8"/>
				<path class="st3" d="M327.2,868.8"/>
				<path class="st4" d="M332.6,828.7c1.5-0.4,3.1-0.4,4.7,0c0.8,0.2,1.5,0.5,2.2,1c0.7,0.4,1.3,1,1.8,1.6c1.1,1.2,1.8,2.8,2.2,4.3
					c0.4,1.6,0.6,3.2,0.6,4.8c0,1.6-0.2,3.2-0.5,4.7c-0.3,1.6-0.7,3.1-1.3,4.6c-1.1,3-2.6,5.8-4.4,8.3c1.5-2.7,2.8-5.6,3.7-8.6
					c0.5-1.5,0.8-3,1.1-4.5c0.3-1.5,0.4-3,0.4-4.6c0-0.8,0-1.5-0.1-2.3c-0.1-0.8-0.2-1.5-0.4-2.2c-0.4-1.5-1-2.9-1.9-4
					c-0.5-0.6-1-1.1-1.6-1.6c-0.6-0.4-1.3-0.8-2-1.1C335.7,828.6,334.2,828.5,332.6,828.7z"/>
				<path class="st4" d="M321.8,870.8c-1.5,0.4-3.1,0.4-4.6,0c-0.8-0.2-1.5-0.5-2.2-0.9c-0.7-0.4-1.3-0.9-1.8-1.5
					c-1.1-1.2-1.8-2.6-2.3-4.1c-0.5-1.5-0.7-3.1-0.7-4.6c0-1.6,0.1-3.1,0.4-4.6c0.3-1.5,0.7-3,1.2-4.5c1-2.9,2.4-5.7,4.1-8.2
					c-1.4,2.7-2.5,5.5-3.4,8.4c-0.4,1.4-0.8,2.9-1,4.4c-0.2,1.5-0.3,3-0.3,4.5c0,1.5,0.2,3,0.6,4.4c0.4,1.4,1,2.8,1.9,3.9
					c0.9,1.1,2.1,2,3.5,2.5C318.7,870.9,320.2,871,321.8,870.8z"/>
				<path class="st4" d="M314.4,858.3c-0.3-2-0.2-4.1,0.2-6.2c0.1-0.3,0.1-0.5,0.2-0.8l0.2-0.8c0.1-0.5,0.3-1,0.5-1.5
					c0.2-0.5,0.4-1,0.6-1.5c0.2-0.5,0.4-0.9,0.6-1.4c0.5-0.9,1-1.8,1.5-2.7c0.6-0.9,1.2-1.7,1.8-2.5c1.3-1.6,2.8-3.1,4.5-4.2
					c-1.4,1.5-2.7,3-3.9,4.7l-0.4,0.6c-0.1,0.2-0.3,0.4-0.4,0.6l-0.4,0.6c-0.1,0.2-0.3,0.4-0.4,0.6c-0.5,0.9-1,1.7-1.4,2.7
					c-0.4,0.9-0.8,1.8-1.2,2.8c-0.2,0.5-0.4,0.9-0.5,1.4c-0.2,0.5-0.3,1-0.4,1.4C314.8,854.3,314.5,856.3,314.4,858.3z"/>
				<path class="st3" d="M314.4,858.3"/>
				<path class="st3" d="M317.5,865"/>
				<path class="st4" d="M331.6,861.1c-0.8,1.1-1.8,2.1-2.8,2.9c-1.1,0.8-2.3,1.5-3.5,2.1c-1.3,0.5-2.7,0.8-4.1,0.7
					c-0.7-0.1-1.4-0.2-2-0.5c-0.6-0.3-1.2-0.7-1.7-1.2c1.2,0.6,2.5,0.9,3.7,0.9c1.3,0,2.5-0.3,3.7-0.8c1.2-0.5,2.3-1.1,3.5-1.8
					C329.5,862.7,330.5,861.9,331.6,861.1z"/>
				<path class="st3" d="M329.7,859.3"/>
				<path class="st4" d="M337,843.2c0.1,0.2,0.1,0.4,0.2,0.6c0.1,0.2,0.1,0.4,0.1,0.6c0.1,0.4,0.1,0.8,0.1,1.2
					c0,0.8-0.1,1.6-0.3,2.4c-0.2,0.8-0.5,1.5-0.8,2.3c-0.3,0.7-0.8,1.4-1.3,2c0.2-0.8,0.4-1.5,0.6-2.3c0.2-0.7,0.4-1.5,0.6-2.2
					c0.2-0.7,0.3-1.5,0.5-2.2l0.2-1.1C336.8,844,336.9,843.6,337,843.2z"/>
				<path class="st4" d="M329.7,837.3c0.5-0.4,1.1-0.6,1.8-0.7c0.6-0.1,1.3,0,1.9,0.2c0.6,0.2,1.2,0.6,1.7,1
					c0.5,0.5,0.8,1.1,0.9,1.7c-0.5-0.4-0.9-0.8-1.4-1.1c-0.5-0.3-1-0.5-1.5-0.7c-0.5-0.2-1.1-0.3-1.6-0.3
					C330.9,837.4,330.3,837.4,329.7,837.3z"/>
				<path class="st3" d="M317.4,854.2"/>
				<path class="st4" d="M329.7,859.3c-1,1.2-2.3,2.2-3.8,2.9c-0.7,0.3-1.5,0.6-2.4,0.7c-0.8,0.1-1.7,0-2.5-0.2
					c-0.8-0.3-1.6-0.8-2.1-1.4c-0.3-0.3-0.5-0.7-0.7-1c-0.1-0.2-0.2-0.4-0.3-0.6c-0.1-0.2-0.2-0.4-0.2-0.6c-0.5-1.6-0.5-3.2-0.1-4.8
					c0.1,1.6,0.3,3.1,0.9,4.5c0.3,0.7,0.7,1.3,1.2,1.8c0.2,0.3,0.5,0.5,0.8,0.7c0.3,0.2,0.6,0.3,1,0.5c0.3,0.1,0.7,0.2,1,0.2
					c0.4,0,0.7,0,1.1,0c0.7-0.1,1.5-0.2,2.2-0.5C327,861,328.3,860.2,329.7,859.3z"/>
				<path class="st4" d="M321.2,849.8c0.4-1.4,1-2.8,1.8-4.1c0.8-1.3,1.8-2.4,3-3.4c0.2-0.1,0.3-0.2,0.5-0.3l0.5-0.3
					c0.3-0.2,0.7-0.4,1-0.5c0.7-0.3,1.5-0.5,2.3-0.5c0.8,0,1.7,0.3,2.3,0.9c0.7,0.6,1.1,1.3,1.3,2.1c0.2,0.8,0.3,1.6,0.3,2.3
					c0,0.4,0,0.8-0.1,1.2c0,0.2,0,0.4-0.1,0.6l-0.1,0.6c0,0.2-0.1,0.4-0.1,0.6l-0.2,0.6c-0.1,0.4-0.2,0.7-0.4,1.1
					c-0.1,0.4-0.3,0.7-0.5,1c-0.2,0.3-0.4,0.7-0.5,1c-0.8,1.3-1.7,2.5-2.8,3.5l-0.2,0.2l-0.2,0.2l-0.4,0.4l-0.5,0.3l-0.2,0.2
					l-0.2,0.1c-0.6,0.4-1.3,0.7-2.1,0.9c0.7-0.3,1.3-0.6,1.9-1.1l0.2-0.2l0.2-0.2l0.4-0.3l0.4-0.4l0.2-0.2l0.2-0.2l0.4-0.4
					c0.1-0.1,0.2-0.3,0.3-0.4c0.2-0.3,0.4-0.6,0.7-0.9c0.2-0.3,0.4-0.6,0.6-0.9c0.2-0.3,0.4-0.6,0.5-0.9c0.7-1.3,1.2-2.6,1.5-4
					l0.1-0.5c0-0.2,0-0.4,0.1-0.5c0.1-0.4,0-0.7,0.1-1.1c0-0.7-0.1-1.4-0.3-2c-0.2-0.6-0.5-1.2-1-1.6c-0.5-0.4-1.1-0.6-1.7-0.7
					c-0.7,0-1.3,0.1-2,0.4c-0.6,0.2-1.3,0.6-1.9,1c-1.2,0.8-2.2,1.9-3.1,3C322.5,847.1,321.8,848.4,321.2,849.8z"/>
			</g>
			<g>
				<path class="st1" d="M327.2,883.7c5.1,4.7,10.1,9.5,15.1,14.3c2.5,2.4,5,4.8,7.4,7.3l7.4,7.3l7.3,7.4c2.4,2.5,4.9,4.9,7.3,7.4
					c4.8,5,9.7,10,14.4,15c-5.1-4.7-10.1-9.5-15.1-14.3c-2.5-2.4-5-4.8-7.4-7.3l-7.4-7.3l-7.3-7.4c-2.4-2.5-4.9-4.9-7.3-7.4
					C336.7,893.8,331.9,888.8,327.2,883.7z"/>
				<path class="st1" d="M364.8,903.3c3.1,2.7,6.1,5.5,9.1,8.4c1.5,1.4,3,2.8,4.4,4.3l4.4,4.3l4.3,4.4c1.4,1.5,2.9,2.9,4.3,4.4
					c2.8,3,5.7,6,8.4,9c-3.1-2.7-6.1-5.5-9.1-8.4c-1.5-1.4-3-2.9-4.4-4.3l-4.4-4.3l-4.3-4.4c-1.4-1.5-2.9-2.9-4.3-4.4
					C370.3,909.3,367.5,906.3,364.8,903.3z"/>
				<path class="st1" d="M347.4,866.3c3.1,2.7,6.1,5.5,9.1,8.4c1.5,1.4,3,2.8,4.4,4.3l4.4,4.3l4.3,4.4c1.4,1.5,2.9,2.9,4.3,4.4
					c2.8,3,5.7,6,8.4,9c-3.1-2.7-6.1-5.5-9.1-8.4c-1.5-1.4-3-2.9-4.4-4.3l-4.4-4.3l-4.3-4.4c-1.4-1.5-2.9-2.9-4.3-4.4
					C352.9,872.4,350.1,869.4,347.4,866.3z"/>
				<path class="st1" d="M354.6,838.7c1.3,0.9,2.5,2,3.7,3c1.2,1.1,2.4,2.2,3.5,3.3c1.1,1.1,2.2,2.3,3.3,3.5c1.1,1.2,2.1,2.4,3,3.7
					c-1.3-0.9-2.5-2-3.7-3c-1.2-1.1-2.4-2.2-3.5-3.3c-1.1-1.1-2.2-2.3-3.3-3.5C356.6,841.2,355.5,840,354.6,838.7z"/>
				<path class="st1" d="M373.8,871c3.3,3,6.6,6,9.8,9.1c1.6,1.5,3.2,3.1,4.8,4.6l4.8,4.7l4.7,4.7c1.6,1.6,3.1,3.2,4.7,4.8
					c3.1,3.2,6.1,6.4,9.1,9.8c-3.3-3-6.6-6-9.8-9.1c-1.6-1.5-3.2-3.1-4.8-4.6l-4.7-4.7l-4.7-4.7c-1.6-1.6-3.1-3.2-4.7-4.8
					C379.9,877.5,376.8,874.3,373.8,871z"/>
				<path class="st1" d="M393.6,877.4c1.9,1.6,3.8,3.2,5.6,4.9c1.8,1.7,3.6,3.4,5.4,5.2c1.8,1.8,3.5,3.5,5.2,5.4
					c1.7,1.8,3.4,3.7,4.9,5.6c-1.9-1.6-3.8-3.2-5.6-4.9c-1.8-1.7-3.6-3.4-5.4-5.2c-1.8-1.8-3.5-3.5-5.2-5.4
					C396.9,881.1,395.2,879.3,393.6,877.4z"/>
			</g>
		</g>
		<g id="whitesmokes">
			<g>
				<circle id="whitesmoke" class="st9" cx="368.6" cy="933.7" r="20.9"/>
				<circle id="whitesmoke_1_" class="st9" cx="369.1" cy="933.7" r="20.9"/>
			</g>
			<circle id="whitesmoke_2_" class="st9" cx="368.9" cy="934.3" r="20.9"/>
			<circle id="whitesmoke_3_" class="st9" cx="368.9" cy="934.3" r="20.9"/>
			<circle id="whitesmoke_4_" class="st9" cx="368.9" cy="934.3" r="20.9"/>
			<circle id="whitesmoke_5_" class="st9" cx="368.9" cy="934.3" r="20.9"/>
			<circle id="whitesmoke_6_" class="st9" cx="368.9" cy="934.3" r="20.9"/>
			<circle id="whitesmoke_7_" class="st9" cx="368.9" cy="934.3" r="20.9"/>
			<circle id="whitesmoke_8_" class="st9" cx="368.9" cy="934.3" r="20.9"/>
			<circle id="whitesmoke_9_" class="st9" cx="368.9" cy="934.3" r="20.9"/>
			<circle id="whitesmoke_10_" class="st9" cx="368.9" cy="934.3" r="20.9"/>
			<circle id="whitesmoke_11_" class="st9" cx="368.9" cy="934.3" r="20.9"/>
			<circle id="whitesmoke_12_" class="st9" cx="368.9" cy="934.3" r="20.9"/>
			<circle id="whitesmoke_13_" class="st9" cx="368.9" cy="934.3" r="20.9"/>
			<circle id="whitesmoke_25_" class="st9" cx="368.9" cy="934.3" r="20.9"/>
			<circle id="whitesmoke_24_" class="st9" cx="368.9" cy="934.3" r="20.9"/>
			<circle id="whitesmoke_23_" class="st9" cx="368.9" cy="934.3" r="20.9"/>
			<circle id="whitesmoke_22_" class="st9" cx="368.9" cy="934.3" r="20.9"/>
			<circle id="whitesmoke_21_" class="st9" cx="368.9" cy="934.3" r="20.9"/>
			<circle id="whitesmoke_20_" class="st9" cx="368.9" cy="934.3" r="20.9"/>
			<circle id="whitesmoke_19_" class="st9" cx="368.9" cy="934.3" r="20.9"/>
			<circle id="whitesmoke_18_" class="st9" cx="368.9" cy="934.3" r="20.9"/>
			<circle id="whitesmoke_17_" class="st9" cx="368.9" cy="934.3" r="20.9"/>
			<circle id="whitesmoke_16_" class="st9" cx="368.9" cy="934.3" r="20.9"/>
			<circle id="whitesmoke_15_" class="st9" cx="368.9" cy="934.3" r="20.9"/>
			<circle id="whitesmoke_14_" class="st9" cx="368.9" cy="934.3" r="20.9"/>
			<circle id="whitesmoke_27_" class="st9" cx="368.6" cy="934.2" r="20.9"/>
			<circle id="whitesmoke_26_" class="st9" cx="369.1" cy="934.2" r="20.9"/>
			<circle id="whitesmoke_53_" class="st9" cx="368.9" cy="934.3" r="20.9"/>
			<circle id="whitesmoke_52_" class="st9" cx="368.9" cy="934.3" r="20.9"/>
			<circle id="whitesmoke_51_" class="st9" cx="368.9" cy="934.3" r="20.9"/>
			<circle id="whitesmoke_50_" class="st9" cx="368.9" cy="934.3" r="20.9"/>
			<circle id="whitesmoke_49_" class="st9" cx="368.9" cy="934.3" r="20.9"/>
			<circle id="whitesmoke_48_" class="st9" cx="368.9" cy="934.3" r="20.9"/>
			<circle id="whitesmoke_47_" class="st9" cx="368.9" cy="934.3" r="20.9"/>
			<circle id="whitesmoke_46_" class="st9" cx="368.9" cy="934.3" r="20.9"/>
			<circle id="whitesmoke_45_" class="st9" cx="368.9" cy="934.3" r="20.9"/>
			<circle id="whitesmoke_44_" class="st9" cx="368.9" cy="934.3" r="20.9"/>
			<circle id="whitesmoke_43_" class="st9" cx="368.9" cy="934.3" r="20.9"/>
			<circle id="whitesmoke_42_" class="st9" cx="368.9" cy="934.3" r="20.9"/>
			<circle id="whitesmoke_41_" class="st9" cx="368.9" cy="934.3" r="20.9"/>
			<circle id="whitesmoke_40_" class="st9" cx="368.9" cy="934.3" r="20.9"/>
			<circle id="whitesmoke_39_" class="st9" cx="368.9" cy="934.3" r="20.9"/>
			<circle id="whitesmoke_38_" class="st9" cx="368.9" cy="934.3" r="20.9"/>
			<circle id="whitesmoke_37_" class="st9" cx="368.9" cy="934.3" r="20.9"/>
			<circle id="whitesmoke_36_" class="st9" cx="368.9" cy="934.3" r="20.9"/>
			<circle id="whitesmoke_35_" class="st9" cx="368.9" cy="934.3" r="20.9"/>
			<circle id="whitesmoke_34_" class="st9" cx="368.9" cy="934.3" r="20.9"/>
			<circle id="whitesmoke_33_" class="st9" cx="368.9" cy="934.3" r="20.9"/>
			<circle id="whitesmoke_32_" class="st9" cx="368.9" cy="934.3" r="20.9"/>
			<circle id="whitesmoke_31_" class="st9" cx="368.9" cy="934.3" r="20.9"/>
			<circle id="whitesmoke_30_" class="st9" cx="368.9" cy="934.3" r="20.9"/>
			<circle id="whitesmoke_29_" class="st9" cx="368.6" cy="934.2" r="20.9"/>
			<circle id="whitesmoke_28_" class="st9" cx="369.1" cy="934.2" r="20.9"/>
			<circle id="whitesmoke_55_" class="st9" cx="368.6" cy="933.7" r="20.9"/>
			<circle id="whitesmoke_54_" class="st9" cx="369.1" cy="933.7" r="20.9"/>
			<g>
				<circle id="whitesmoke_111_" class="st9" cx="368.6" cy="934.7" r="20.9"/>
				<circle id="whitesmoke_110_" class="st9" cx="369.1" cy="934.7" r="20.9"/>
			</g>
			<circle id="whitesmoke_109_" class="st9" cx="368.9" cy="935.3" r="20.9"/>
			<circle id="whitesmoke_108_" class="st9" cx="368.9" cy="935.3" r="20.9"/>
			<circle id="whitesmoke_107_" class="st9" cx="368.9" cy="935.3" r="20.9"/>
			<circle id="whitesmoke_106_" class="st9" cx="368.9" cy="935.3" r="20.9"/>
			<circle id="whitesmoke_105_" class="st9" cx="368.9" cy="935.3" r="20.9"/>
			<circle id="whitesmoke_104_" class="st9" cx="368.9" cy="935.3" r="20.9"/>
			<circle id="whitesmoke_103_" class="st9" cx="368.9" cy="935.3" r="20.9"/>
			<circle id="whitesmoke_102_" class="st9" cx="368.9" cy="935.3" r="20.9"/>
			<circle id="whitesmoke_101_" class="st9" cx="368.9" cy="935.3" r="20.9"/>
			<circle id="whitesmoke_100_" class="st9" cx="368.9" cy="935.3" r="20.9"/>
			<circle id="whitesmoke_99_" class="st9" cx="368.9" cy="935.3" r="20.9"/>
			<circle id="whitesmoke_98_" class="st9" cx="368.9" cy="935.3" r="20.9"/>
			<circle id="whitesmoke_97_" class="st9" cx="368.9" cy="935.3" r="20.9"/>
			<circle id="whitesmoke_96_" class="st9" cx="368.9" cy="935.3" r="20.9"/>
			<circle id="whitesmoke_95_" class="st9" cx="368.9" cy="935.3" r="20.9"/>
			<circle id="whitesmoke_94_" class="st9" cx="368.9" cy="935.3" r="20.9"/>
			<circle id="whitesmoke_93_" class="st9" cx="368.9" cy="935.3" r="20.9"/>
			<circle id="whitesmoke_92_" class="st9" cx="368.9" cy="935.3" r="20.9"/>
			<circle id="whitesmoke_91_" class="st9" cx="368.9" cy="935.3" r="20.9"/>
			<circle id="whitesmoke_90_" class="st9" cx="368.9" cy="935.3" r="20.9"/>
			<circle id="whitesmoke_89_" class="st9" cx="368.9" cy="935.3" r="20.9"/>
			<circle id="whitesmoke_88_" class="st9" cx="368.9" cy="935.3" r="20.9"/>
			<circle id="whitesmoke_87_" class="st9" cx="368.9" cy="935.3" r="20.9"/>
			<circle id="whitesmoke_86_" class="st9" cx="368.9" cy="935.3" r="20.9"/>
			<circle id="whitesmoke_85_" class="st9" cx="368.6" cy="935.2" r="20.9"/>
			<circle id="whitesmoke_84_" class="st9" cx="369.1" cy="935.2" r="20.9"/>
			<circle id="whitesmoke_83_" class="st9" cx="368.9" cy="935.3" r="20.9"/>
			<circle id="whitesmoke_82_" class="st9" cx="368.9" cy="935.3" r="20.9"/>
			<circle id="whitesmoke_81_" class="st9" cx="368.9" cy="935.3" r="20.9"/>
			<circle id="whitesmoke_80_" class="st9" cx="368.9" cy="935.3" r="20.9"/>
			<circle id="whitesmoke_79_" class="st9" cx="368.9" cy="935.3" r="20.9"/>
			<circle id="whitesmoke_78_" class="st9" cx="368.9" cy="935.3" r="20.9"/>
			<circle id="whitesmoke_77_" class="st9" cx="368.9" cy="935.3" r="20.9"/>
			<circle id="whitesmoke_76_" class="st9" cx="368.9" cy="935.3" r="20.9"/>
			<circle id="whitesmoke_75_" class="st9" cx="368.9" cy="935.3" r="20.9"/>
			<circle id="whitesmoke_74_" class="st9" cx="368.9" cy="935.3" r="20.9"/>
			<circle id="whitesmoke_73_" class="st9" cx="368.9" cy="935.3" r="20.9"/>
			<circle id="whitesmoke_72_" class="st9" cx="368.9" cy="935.3" r="20.9"/>
			<circle id="whitesmoke_71_" class="st9" cx="368.9" cy="935.3" r="20.9"/>
			<circle id="whitesmoke_70_" class="st9" cx="368.9" cy="935.3" r="20.9"/>
			<circle id="whitesmoke_69_" class="st9" cx="368.9" cy="935.3" r="20.9"/>
			<circle id="whitesmoke_68_" class="st9" cx="368.9" cy="935.3" r="20.9"/>
			<circle id="whitesmoke_67_" class="st9" cx="368.9" cy="935.3" r="20.9"/>
			<circle id="whitesmoke_66_" class="st9" cx="368.9" cy="935.3" r="20.9"/>
			<circle id="whitesmoke_65_" class="st9" cx="368.9" cy="935.3" r="20.9"/>
			<circle id="whitesmoke_64_" class="st9" cx="368.9" cy="935.3" r="20.9"/>
			<circle id="whitesmoke_63_" class="st9" cx="368.9" cy="935.3" r="20.9"/>
			<circle id="whitesmoke_62_" class="st9" cx="368.9" cy="935.3" r="20.9"/>
			<circle id="whitesmoke_61_" class="st9" cx="368.9" cy="935.3" r="20.9"/>
			<circle id="whitesmoke_60_" class="st9" cx="368.9" cy="935.3" r="20.9"/>
			<circle id="whitesmoke_59_" class="st9" cx="368.6" cy="935.2" r="20.9"/>
			<circle id="whitesmoke_58_" class="st9" cx="369.1" cy="935.2" r="20.9"/>
			<circle id="whitesmoke_57_" class="st9" cx="368.6" cy="934.7" r="20.9"/>
			<circle id="whitesmoke_56_" class="st9" cx="369.1" cy="934.7" r="20.9"/>
		</g>
		<g id="flame">
			<path class="st10" d="M375.1,893.2c0,8.9-7.2,16.1-7.2,16.1s-7.2-7.2-7.2-16.1s7.2-16.1,7.2-16.1S375.1,884.3,375.1,893.2z"/>
			<path class="st11" d="M375.1,893.2c0,8.9-7.2,16.1-7.2,16.1s-7.2-7.2-7.2-16.1s7.2-16.1,7.2-16.1S375.1,884.3,375.1,893.2z"/>
			<path class="st12" d="M375.1,893.2c0,8.9-7.2,16.1-7.2,16.1s-7.2-7.2-7.2-16.1s7.2-16.1,7.2-16.1S375.1,884.3,375.1,893.2z"/>
			<path class="st13" d="M375.1,893.2c0,8.9-7.2,16.1-7.2,16.1s-7.2-7.2-7.2-16.1s7.2-16.1,7.2-16.1S375.1,884.3,375.1,893.2z"/>
			<path class="st14" d="M375.1,896.1c0,8.9-7.2,16.1-7.2,16.1s-7.2-7.2-7.2-16.1c0-8.9,7.2-16.1,7.2-16.1S375.1,887.2,375.1,896.1z
				"/>
      <path class="st10" d="M375.1,893.2c0,8.9-7.2,16.1-7.2,16.1s-7.2-7.2-7.2-16.1s7.2-16.1,7.2-16.1S375.1,884.3,375.1,893.2z"/>
			<path class="st11" d="M375.1,893.2c0,8.9-7.2,16.1-7.2,16.1s-7.2-7.2-7.2-16.1s7.2-16.1,7.2-16.1S375.1,884.3,375.1,893.2z"/>
			<path class="st12" d="M375.1,893.2c0,8.9-7.2,16.1-7.2,16.1s-7.2-7.2-7.2-16.1s7.2-16.1,7.2-16.1S375.1,884.3,375.1,893.2z"/>
			<path class="st13" d="M375.1,893.2c0,8.9-7.2,16.1-7.2,16.1s-7.2-7.2-7.2-16.1s7.2-16.1,7.2-16.1S375.1,884.3,375.1,893.2z"/>
			<path class="st14" d="M375.1,896.1c0,8.9-7.2,16.1-7.2,16.1s-7.2-7.2-7.2-16.1c0-8.9,7.2-16.1,7.2-16.1S375.1,887.2,375.1,896.1z
				"/>
		</g>
		<g id="SMOKE2">
			<circle class="st6" cx="318.1" cy="939" r="11.1"/>
			<circle class="st6" cx="330.3" cy="939" r="18.5"/>
			<circle class="st7" cx="356.8" cy="939" r="9.6"/>
			<circle class="st8" cx="352.8" cy="939" r="8.4"/>
			<circle class="st8" cx="354.3" cy="939" r="9.6"/>
			<circle class="st8" cx="333.6" cy="939" r="12.9"/>
			<circle class="st6" cx="330.9" cy="939" r="6.9"/>
			<circle class="st6" cx="341.1" cy="939" r="15.3"/>
			<circle class="st7" cx="320.9" cy="939" r="9.6"/>
			<ellipse class="st7" cx="329.8" cy="939" rx="10.5" ry="11.1"/>
		</g>
		<g>
			<path class="st1" d="M458.1,899.2L458.1,899.2L458.1,899.2c-0.8,0-1.5,0-2.3,0l-127.2,2.1l-2.8,69.1l127.9-2.2
				c7.2,0.5,14.5-4.6,19.4-14.4c7.6-15.5,6.1-37.1-3.3-48.3C466.3,901.6,462.3,899.5,458.1,899.2z"/>
			
				<ellipse transform="matrix(6.093861e-02 -0.9981 0.9981 6.093861e-02 -626.3683 1206.1519)" class="st2" cx="327.8" cy="936" rx="34.6" ry="22"/>
			<g>
				<path class="st3" d="M336.6,956.5"/>
				<path class="st3" d="M340.7,950.5"/>
				<path class="st4" d="M319.3,914.6c1.1-1.3,2.4-2.5,4-3.4c1.5-0.9,3.3-1.5,5.1-1.6c1.8-0.1,3.6,0.2,5.3,1
					c1.6,0.7,3.1,1.9,4.3,3.1c1.2,1.3,2.2,2.8,3.1,4.3c0.8,1.6,1.5,3.2,2,4.9c1,3.4,1.4,6.9,1.3,10.4c-0.3-3.5-0.9-6.9-2-10.1
					c-0.6-1.6-1.2-3.2-2.1-4.7c-0.8-1.5-1.8-2.9-3-4.1c-1.2-1.2-2.5-2.3-4-3c-1.5-0.7-3.2-1.1-4.8-1c-1.7,0.1-3.3,0.5-4.9,1.3
					C321.9,912.3,320.6,913.4,319.3,914.6z"/>
				<path class="st4" d="M336.6,956.5c-1.1,1.3-2.4,2.5-3.8,3.4c-1.5,0.9-3.1,1.5-4.9,1.7c-1.7,0.2-3.5-0.1-5.2-0.8
					c-1.6-0.7-3.1-1.7-4.3-2.9c-1.2-1.2-2.3-2.6-3.1-4.1c-0.9-1.5-1.6-3.1-2.1-4.7c-1.1-3.3-1.6-6.7-1.5-10.1
					c0.4,3.4,1.1,6.7,2.3,9.8c0.6,1.6,1.3,3.1,2.2,4.5c0.2,0.4,0.4,0.7,0.7,1c0.2,0.3,0.5,0.7,0.7,1c0.5,0.6,1,1.3,1.6,1.8
					c1.2,1.1,2.5,2.1,4,2.8c1.5,0.7,3.1,0.9,4.7,0.9c1.6-0.1,3.2-0.6,4.7-1.3C334,958.7,335.3,957.7,336.6,956.5z"/>
				<path class="st4" d="M320.8,952.7c-1.7-1.4-3-3.3-3.9-5.4c-0.2-0.5-0.4-1-0.6-1.6c-0.2-0.5-0.3-1.1-0.5-1.6
					c-0.1-0.5-0.3-1.1-0.4-1.6l-0.3-1.7c-0.1-0.6-0.1-1.1-0.2-1.7c0-0.6-0.1-1.1-0.1-1.7c0-0.6,0-1.1,0-1.7c0-0.6,0.1-1.1,0.1-1.7
					c0.3-2.2,0.8-4.4,1.6-6.5c-0.5,2.2-0.8,4.4-0.9,6.5c0,0.5,0,1.1,0,1.6c0,0.5,0,1.1,0,1.6l0.1,1.6l0.2,1.6l0.3,1.6l0.3,1.6
					c0.1,0.5,0.3,1.1,0.4,1.6l0.3,0.8c0.1,0.3,0.2,0.5,0.3,0.8C318.3,949,319.3,950.9,320.8,952.7z"/>
				<path class="st3" d="M320.8,952.7"/>
				<path class="st3" d="M328.3,955.5"/>
				<path class="st4" d="M340,940.8c-0.1,1.7-0.5,3.3-1.1,4.9c-0.3,0.8-0.6,1.6-1,2.3c-0.1,0.2-0.2,0.4-0.3,0.6l-0.3,0.6
					c-0.2,0.4-0.4,0.7-0.7,1.1c-0.5,0.7-1,1.4-1.6,2c-0.6,0.6-1.2,1.2-2,1.6c-1.4,1-3.1,1.6-4.7,1.6c1.6-0.4,3-1.2,4.3-2.3
					c0.6-0.5,1.2-1.1,1.7-1.7c0.3-0.3,0.5-0.6,0.8-0.9c0.1-0.2,0.2-0.3,0.4-0.5l0.3-0.5c0.2-0.3,0.4-0.7,0.7-1
					c0.2-0.3,0.4-0.7,0.6-1c0.4-0.7,0.8-1.4,1.1-2.2C338.9,943.9,339.5,942.4,340,940.8z"/>
				<path class="st3" d="M336.8,941"/>
				<path class="st4" d="M333.4,922.4c0.2,0.1,0.3,0.2,0.5,0.4c0.2,0.1,0.3,0.3,0.5,0.4c0.3,0.3,0.6,0.6,0.9,0.9
					c0.5,0.7,0.9,1.4,1.3,2.2c0.3,0.8,0.6,1.6,0.7,2.4c0.1,0.8,0.2,1.7,0.1,2.5c-0.3-0.8-0.6-1.5-0.9-2.3c-0.3-0.8-0.6-1.5-0.9-2.2
					c-0.3-0.7-0.6-1.4-1-2.2c-0.2-0.4-0.4-0.7-0.6-1.1l-0.2-0.3c-0.1-0.1-0.1-0.2-0.2-0.3C333.7,922.8,333.5,922.6,333.4,922.4z"/>
				<path class="st4" d="M322.1,923.8c0.3-0.7,0.8-1.4,1.3-1.9c0.6-0.6,1.2-1,1.9-1.4c0.7-0.3,1.5-0.6,2.3-0.6
					c0.8,0,1.6,0.1,2.3,0.5c-0.8,0-1.5,0.1-2.2,0.3c-0.7,0.2-1.4,0.4-2,0.7c-0.6,0.3-1.2,0.7-1.8,1.1
					C323.4,922.9,322.8,923.3,322.1,923.8z"/>
				<path class="st3" d="M321.1,947"/>
				<path class="st4" d="M336.8,941c-0.3,1.8-0.9,3.6-1.9,5.3c-0.5,0.8-1.1,1.6-1.7,2.3c-0.7,0.7-1.4,1.3-2.3,1.8
					c-0.4,0.2-0.9,0.4-1.4,0.6c-0.5,0.1-1,0.3-1.5,0.3c-0.5,0-1,0-1.5,0c-0.5-0.1-1-0.2-1.4-0.4c-0.9-0.4-1.7-0.9-2.4-1.6
					c-0.2-0.2-0.3-0.3-0.5-0.5c-0.2-0.2-0.3-0.4-0.4-0.6c-0.3-0.4-0.5-0.8-0.8-1.2l0.5,0.5c0.2,0.2,0.3,0.3,0.5,0.5
					c0.2,0.2,0.3,0.3,0.5,0.5c0.2,0.2,0.4,0.3,0.5,0.4c0.2,0.1,0.4,0.3,0.6,0.4c0.2,0.1,0.4,0.2,0.6,0.3c0.4,0.2,0.8,0.4,1.2,0.5
					c1.7,0.5,3.5,0.3,5-0.6c0.8-0.4,1.5-1,2.1-1.6c0.6-0.6,1.2-1.3,1.7-2.1C335.3,944.4,336.1,942.8,336.8,941z"/>
				<path class="st4" d="M321.9,940.4c-0.6-1.6-0.8-3.3-0.8-5c0-1.7,0.3-3.4,0.9-5.1c0.3-0.8,0.7-1.6,1.2-2.3
					c0.2-0.4,0.5-0.7,0.8-1.1c0.3-0.3,0.6-0.7,1-0.9c0.7-0.6,1.5-1,2.4-1.2c0.9-0.2,1.9-0.1,2.8,0.2c0.2,0.1,0.4,0.2,0.6,0.3
					l0.6,0.4c0.2,0.1,0.4,0.3,0.5,0.4c0.1,0.1,0.2,0.2,0.2,0.2l0.2,0.2c0.6,0.7,1.1,1.4,1.5,2.2l0.1,0.3c0,0.1,0.1,0.2,0.1,0.3
					l0.2,0.6l0.2,0.6c0,0.1,0.1,0.2,0.1,0.3l0.1,0.3c0.2,0.8,0.3,1.7,0.4,2.6c0.1,1.7-0.1,3.5-0.6,5.1c-0.3,0.8-0.5,1.6-0.9,2.4
					c-0.4,0.8-0.8,1.5-1.4,2.1c0.2-0.4,0.4-0.7,0.6-1.1c0.2-0.4,0.4-0.8,0.5-1.1c0.3-0.8,0.5-1.6,0.7-2.4c0.3-1.6,0.4-3.3,0.3-4.9
					l-0.1-0.6l0-0.3l-0.1-0.3l-0.1-0.6l-0.1-0.6l-0.1-0.3c0-0.1-0.1-0.2-0.1-0.3l-0.2-0.6l-0.2-0.6c0-0.1-0.1-0.2-0.1-0.3l-0.1-0.3
					c-0.3-0.7-0.8-1.4-1.3-2l-0.2-0.2c-0.1-0.1-0.1-0.1-0.2-0.2l-0.5-0.4l-0.5-0.3c-0.2-0.1-0.3-0.2-0.5-0.2
					c-0.7-0.3-1.5-0.3-2.2-0.2c-0.7,0.2-1.4,0.5-2,1c-0.3,0.2-0.6,0.5-0.9,0.8c-0.2,0.3-0.5,0.6-0.7,1c-0.5,0.7-0.8,1.4-1.2,2.1
					c-0.6,1.5-1,3.1-1.1,4.8C321.4,937.1,321.5,938.8,321.9,940.4z"/>
			</g>
			<g>
				<path class="st5" d="M350.7,962.2c8.2-0.4,16.5-0.7,24.7-0.9c4.1-0.1,8.2-0.2,12.4-0.3l12.4-0.3l12.4-0.2
					c4.1,0,8.2-0.1,12.4-0.1c8.2-0.1,16.5-0.1,24.7,0c-8.2,0.4-16.5,0.7-24.7,0.9c-4.1,0.1-8.2,0.2-12.4,0.3l-12.4,0.3l-12.4,0.2
					c-4.1,0-8.2,0.1-12.4,0.1C367.2,962.3,359,962.3,350.7,962.2z"/>
				<path class="st5" d="M401.8,947c4.9-0.3,9.8-0.6,14.6-0.8c2.4-0.1,4.9-0.2,7.3-0.2l7.3-0.2l7.3-0.1c2.4,0,4.9,0,7.3,0
					c4.9,0,9.8,0,14.7,0.2c-4.9,0.4-9.8,0.6-14.6,0.8c-2.4,0.1-4.9,0.2-7.3,0.2l-7.3,0.2l-7.3,0.1c-2.4,0-4.9,0-7.3,0
					C411.5,947.2,406.7,947.1,401.8,947z"/>
				<path class="st5" d="M359.5,932.1c4.9-0.3,9.8-0.6,14.6-0.8c2.4-0.1,4.9-0.2,7.3-0.2l7.3-0.2l7.3-0.1c2.4,0,4.9,0,7.3,0
					c4.9,0,9.8,0,14.7,0.2c-4.9,0.4-9.8,0.6-14.6,0.8c-2.4,0.1-4.9,0.2-7.3,0.2l-7.3,0.2l-7.3,0.1c-2.4,0-4.9,0-7.3,0
					C369.2,932.3,364.3,932.3,359.5,932.1z"/>
				<path class="st5" d="M348.2,904.5c1.9-0.3,3.8-0.5,5.7-0.6c1.9-0.1,3.8-0.2,5.7-0.2c1.9,0,3.8,0,5.7,0c1.9,0.1,3.8,0.2,5.7,0.4
					c-1.9,0.3-3.8,0.5-5.7,0.6c-1.9,0.1-3.8,0.2-5.7,0.2c-1.9,0-3.8,0-5.7,0C352,904.8,350.1,904.7,348.2,904.5z"/>
				<path class="st5" d="M389.3,914.2c5.3-0.4,10.6-0.6,15.9-0.8c2.6-0.1,5.3-0.2,7.9-0.3l7.9-0.2l7.9-0.1c2.6,0,5.3-0.1,7.9,0
					c5.3,0,10.6,0,15.9,0.2c-5.3,0.4-10.6,0.6-15.9,0.8c-2.6,0.1-5.3,0.2-7.9,0.3l-7.9,0.2l-7.9,0.1c-2.6,0-5.3,0.1-7.9,0
					C399.9,914.4,394.6,914.4,389.3,914.2z"/>
				<path class="st5" d="M413.6,903.1c3-0.3,5.9-0.5,8.9-0.6c3-0.2,5.9-0.2,8.9-0.3c3-0.1,5.9-0.1,8.9,0c3,0,5.9,0.1,8.9,0.3
					c-3,0.3-5.9,0.5-8.9,0.7c-3,0.2-5.9,0.2-8.9,0.3c-3,0.1-5.9,0.1-8.9,0C419.5,903.4,416.5,903.3,413.6,903.1z"/>
			</g>
		</g>
	</g>
	<g id="stickMarsh">
		<g id="stick">
			<path class="st15" d="M179,754c0,0,3-2,3-4s1,1,1,1l-4,4V754z"/>
			<path class="st15" d="M86.3,947.4c-1.3-0.8-1.7-2.4-1-3.7c2-3.7,5.9-10.9,7.8-13.7c18-27.5,51.6-73.1,87.1-120
				c1.7-2.3-23.3-77.8-20.8-77.9c2.2-0.1,4.2-1.2,3.9-3.4c-0.9-7.4,4.1,8.2,9.7,26.7c0.3,1,6.6-3,6.9-2c0.2,0.6,0.4,1.2,0.6,1.8
				c0.3,0.9-5.4,6.8-5.2,7.8c5.9,19.3,11.9,38.9,12.6,37.9c56.5-74.3,119.2-155.4,121.9-158.9c0.1-0.1,0.1-0.2,0.2-0.2l31.3-0.3
				c0.4-0.4,1,0.1,0.7,0.6l-28,3.7c0,0.1-0.1,0.2-0.2,0.2L140,880.3c-0.9,1.2-0.7,2.8,0.5,3.8l0.8,0.7c1.1,0.9,1.3,2.5,0.4,3.7l0,0
				c-0.4,0.5-0.9,0.8-1.5,0.9l-7.7,1L90.5,947c-0.8,1.1-2.4,1.5-3.6,0.7L86.3,947.4z"/>
			<path class="st16" d="M189.4,749.5c-1.2,3.2-5.6,3-7.3,1.4c-1.6-1.6-1.9-6.5,1.4-7.3c2.9-0.7,11-5.1,11-5.1
				S190.5,746.6,189.4,749.5z"/>
			<path class="st15" d="M142.2,887.3c0,0,3.5-1,4.1-2.9c0.6-1.9,0.6,1.3,0.6,1.3l-5,2.6L142.2,887.3z"/>
			<path class="st16" d="M153,886c-2.9,1.8-6.5,1.7-6.8-0.6c-0.3-2.3,2.8-4.8,5.8-3.4c1.5,0.7,5.1,1,7.9,1.1c0.4,0,0.5,0.6,0.1,0.7
				C157.5,884.3,154.4,885.1,153,886z"/>
		</g>
		<g id="marshmellow">
			<path id="base" class="st17" d="M334.1,647.7v-10.8c0-5.6,4.6-10.3,10.3-10.3h13.5c5.6,0,10.3,4.6,10.3,10.3v10.8
				c0,5.6-4.6,10.3-10.3,10.3h-13.5C338.7,658,334.1,653.4,334.1,647.7z"/>
			<path id="yellow" class="st10" d="M357.9,658.2h-13.6c-5.6,0-10.3-4.6-10.3-10.3v-6.5c0-5.6,4.6,7,10.3,7h13.6
				c5.6,0,10.3-12.7,10.3-7v6.5C368.1,653.6,363.5,658.2,357.9,658.2z"/>
			<path id="darken" class="st6" d="M357.9,658.2h-13.7c-5.6,0-10.1-4.5-10.1-10.1v-6.6c0-5.6-1.7,12,10,12c7.3,0,7,0,13.6,0
				c10.5,0,10.5-17.6,10.5-12v6.5C368.1,653.6,363.5,658.2,357.9,658.2z"/>
			<g id="burns">
				<circle class="st7" cx="364.6" cy="654.4" r="1.5"/>
				<circle class="st7" cx="342.8" cy="658.7" r="1.5"/>
				<circle class="st7" cx="340.9" cy="657" r="1.5"/>
				<circle class="st7" cx="358.4" cy="656.5" r="1.5"/>
				<circle class="st7" cx="336.6" cy="654.9" r="1.5"/>
				<circle class="st7" cx="338.5" cy="657" r="1.5"/>
				<circle class="st7" cx="366.5" cy="652.8" r="1.5"/>
				<circle class="st7" cx="340.9" cy="655.5" r="1.5"/>
				<circle class="st7" cx="363.7" cy="656.5" r="1.9"/>
				<circle class="st7" cx="360.8" cy="656.2" r="1.9"/>
				<circle class="st7" cx="356.7" cy="658.3" r="1.9"/>
				<circle class="st7" cx="345.7" cy="658.6" r="1.9"/>
				<circle class="st7" cx="338.5" cy="654.7" r="1.9"/>
				<circle class="st7" cx="335.3" cy="652.8" r="1.9"/>
				<circle class="st7" cx="362.3" cy="653.4" r="0.9"/>
				<circle class="st7" cx="368.1" cy="650.6" r="0.9"/>
				<circle class="st7" cx="343.8" cy="657" r="0.9"/>
				<circle class="st7" cx="339.8" cy="658.4" r="0.9"/>
				<circle class="st7" cx="334.9" cy="650.6" r="0.9"/>
				<circle class="st7" cx="345.7" cy="655.1" r="0.9"/>
				<circle class="st7" cx="359.4" cy="658.3" r="0.9"/>
				<circle class="st7" cx="355.5" cy="657" r="0.9"/>
				<circle class="st7" cx="347.7" cy="658.3" r="0.9"/>
			</g>
		</g>
	</g>
</g>
</svg>