<?xml version="1.0" standalone="no"?>
<!DOCTYPE svg PUBLIC "-//W3C//DTD SVG 20010904//EN"
 "http://www.w3.org/TR/2001/REC-SVG-20010904/DTD/svg10.dtd">
<svg version="1.0" xmlns="http://www.w3.org/2000/svg"
 width="840.000000pt" height="630.000000pt" viewBox="0 0 1280.000000 640.000000"
 preserveAspectRatio="xMidYMid meet">
<g transform="translate(0.000000,640.000000) scale(0.100000,-0.100000)"
fill="#000000" stroke="none">
<path d="M5940 4445 c-80 -32 -92 -34 -204 -35 l-119 0 -166 -118 c-568 -404
-1014 -678 -1586 -974 -904 -468 -1817 -804 -3489 -1284 l-308 -89 3378 -6
c4517 -8 9258 -10 9252 -4 -2 3 -49 14 -104 24 -462 91 -597 119 -789 162
-1619 367 -2701 839 -4695 2049 -498 302 -442 272 -480 259 -32 -12 -35 -11
-60 19 -29 35 -40 37 -105 20 -35 -9 -55 -9 -93 1 -46 11 -54 10 -111 -13 -74
-32 -78 -32 -151 -1 -33 14 -65 25 -72 25 -7 -1 -51 -16 -98 -35z"/>
</g>
</svg>
